<svg width="24" height="24" viewBox="0 0 24 24" fill="none" xmlns="http://www.w3.org/2000/svg"><path fill-rule="evenodd" clip-rule="evenodd" d="M12.0002 6.49996C12.5525 6.49996 13.0002 6.94767 13.0002 7.49996V11.5857L16.2073 14.7929C16.5978 15.1834 16.5978 15.8165 16.2073 16.2071C15.8168 16.5976 15.1836 16.5976 14.7931 16.2071L11.2931 12.7071C11.1055 12.5195 11.0002 12.2652 11.0002 12V7.49996C11.0002 6.94767 11.4479 6.49996 12.0002 6.49996Z" fill="currentColor"></path><path fill-rule="evenodd" clip-rule="evenodd" d="M21.3972 8.58032C19.5082 3.39054 13.7698 0.714673 8.58004 2.6036C5.98755 3.54719 4.02326 5.45114 2.94122 7.76603L2.45461 6.4291C2.26572 5.91012 1.69188 5.64253 1.1729 5.83142C0.653923 6.02032 0.386335 6.59416 0.575228 7.11314L2.11435 11.3418C2.20506 11.5911 2.39106 11.794 2.63143 11.9061C2.87181 12.0182 3.14686 12.0302 3.39608 11.9395L7.67015 10.3838C8.18913 10.1949 8.4567 9.62102 8.2678 9.10205C8.0789 8.58307 7.50505 8.3155 6.98607 8.5044L4.42129 9.43797C5.17388 7.21676 6.89107 5.34669 9.26408 4.48298C13.4159 2.97184 18.0066 5.11254 19.5178 9.26436C21.0289 13.4162 18.8882 18.0069 14.7364 19.5181C11.1741 20.8146 7.28616 19.4225 5.30076 16.3764C4.99919 15.9137 4.37964 15.7831 3.91696 16.0847C3.45428 16.3863 3.32367 17.0058 3.62524 17.4685C6.10708 21.2763 10.9648 23.0192 15.4204 21.3974C20.6102 19.5085 23.2861 13.7701 21.3972 8.58032Z" fill="currentColor"></path></svg>
