<svg width="24" height="24" viewBox="0 0 24 24" fill="none" xmlns="http://www.w3.org/2000/svg"><path d="M9.54107 18.2001C9.41862 18.2001 9.32028 18.3032 9.33938 18.4242C9.52469 19.5977 10.6454 20.5001 12.0003 20.5001C13.3552 20.5001 14.4759 19.5977 14.6612 18.4242C14.6803 18.3032 14.582 18.2001 14.4595 18.2001H9.54107Z" fill="currentColor"></path><path d="M14.2743 5.33591C16.9262 6.32485 17.2116 9.15565 17.2116 11.4885C17.2116 12.5656 17.8699 13.2465 18.4616 13.8586C18.9445 14.3581 19.383 14.8117 19.383 15.3971C19.383 16.581 18.5352 16.7 17.6458 16.7H6.35434C5.46639 16.7 4.61719 16.5737 4.61719 15.3971C4.61719 14.8117 5.0557 14.3581 5.5386 13.8586C6.13029 13.2465 6.78863 12.5656 6.78863 11.4885C6.78863 9.15562 7.07395 6.32478 9.72595 5.33587C9.98229 4.28091 10.9033 3.5 12.0001 3.5C13.097 3.5 14.018 4.28093 14.2743 5.33591Z" fill="currentColor"></path></svg>
